<svg width="130" height="115" viewBox="0 0 130 115" fill="none" xmlns="http://www.w3.org/2000/svg">
<g opacity="0.3">
<mask id="mask0_21_5" style="mask-type:alpha" maskUnits="userSpaceOnUse" x="-2" y="0" width="11" height="11">
<path d="M3.22838 10.425C6.11594 10.425 8.45677 8.09121 8.45677 5.21245C8.45677 2.33368 6.11594 0 3.22838 0C0.340822 0 -2 2.33368 -2 5.21245C-2 8.09121 0.340822 10.425 3.22838 10.425Z" fill="url(#paint0_linear_21_5)"/>
</mask>
<g mask="url(#mask0_21_5)">
<path d="M3.22838 10.425C6.11594 10.425 8.45677 8.09121 8.45677 5.21245C8.45677 2.33368 6.11594 0 3.22838 0C0.340822 0 -2 2.33368 -2 5.21245C-2 8.09121 0.340822 10.425 3.22838 10.425Z" fill="url(#paint1_linear_21_5)"/>
</g>
<mask id="mask1_21_5" style="mask-type:alpha" maskUnits="userSpaceOnUse" x="28" y="0" width="11" height="11">
<path d="M33.5095 10.425C36.397 10.425 38.7378 8.09121 38.7378 5.21245C38.7378 2.33368 36.397 0 33.5095 0C30.6219 0 28.2811 2.33368 28.2811 5.21245C28.2811 8.09121 30.6219 10.425 33.5095 10.425Z" fill="url(#paint2_linear_21_5)"/>
</mask>
<g mask="url(#mask1_21_5)">
<path d="M33.5095 10.425C36.397 10.425 38.7378 8.09121 38.7378 5.21245C38.7378 2.33368 36.397 0 33.5095 0C30.6219 0 28.2811 2.33368 28.2811 5.21245C28.2811 8.09121 30.6219 10.425 33.5095 10.425Z" fill="url(#paint3_linear_21_5)"/>
</g>
<mask id="mask2_21_5" style="mask-type:alpha" maskUnits="userSpaceOnUse" x="58" y="0" width="12" height="11">
<path d="M63.7905 10.425C66.6781 10.425 69.0189 8.09121 69.0189 5.21245C69.0189 2.33368 66.6781 0 63.7905 0C60.903 0 58.5621 2.33368 58.5621 5.21245C58.5621 8.09121 60.903 10.425 63.7905 10.425Z" fill="url(#paint4_linear_21_5)"/>
</mask>
<g mask="url(#mask2_21_5)">
<path d="M63.7905 10.425C66.6781 10.425 69.0189 8.09121 69.0189 5.21245C69.0189 2.33368 66.6781 0 63.7905 0C60.903 0 58.5621 2.33368 58.5621 5.21245C58.5621 8.09121 60.903 10.425 63.7905 10.425Z" fill="url(#paint5_linear_21_5)"/>
</g>
<mask id="mask3_21_5" style="mask-type:alpha" maskUnits="userSpaceOnUse" x="88" y="0" width="12" height="11">
<path d="M94.0716 10.425C96.9592 10.425 99.3 8.09121 99.3 5.21245C99.3 2.33368 96.9592 0 94.0716 0C91.184 0 88.8432 2.33368 88.8432 5.21245C88.8432 8.09121 91.184 10.425 94.0716 10.425Z" fill="url(#paint6_linear_21_5)"/>
</mask>
<g mask="url(#mask3_21_5)">
<path d="M94.0716 10.425C96.9592 10.425 99.3 8.09121 99.3 5.21245C99.3 2.33368 96.9592 0 94.0716 0C91.184 0 88.8432 2.33368 88.8432 5.21245C88.8432 8.09121 91.184 10.425 94.0716 10.425Z" fill="url(#paint7_linear_21_5)"/>
</g>
<mask id="mask4_21_5" style="mask-type:alpha" maskUnits="userSpaceOnUse" x="119" y="0" width="11" height="11">
<path d="M124.353 10.425C127.24 10.425 129.581 8.09121 129.581 5.21245C129.581 2.33368 127.24 0 124.353 0C121.465 0 119.124 2.33368 119.124 5.21245C119.124 8.09121 121.465 10.425 124.353 10.425Z" fill="url(#paint8_linear_21_5)"/>
</mask>
<g mask="url(#mask4_21_5)">
<path d="M124.353 10.425C127.24 10.425 129.581 8.09121 129.581 5.21245C129.581 2.33368 127.24 0 124.353 0C121.465 0 119.124 2.33368 119.124 5.21245C119.124 8.09121 121.465 10.425 124.353 10.425Z" fill="url(#paint9_linear_21_5)"/>
</g>
<mask id="mask5_21_5" style="mask-type:alpha" maskUnits="userSpaceOnUse" x="-2" y="26" width="11" height="11">
<path d="M3.22838 36.5958C6.11594 36.5958 8.45677 34.2621 8.45677 31.3834C8.45677 28.5046 6.11594 26.171 3.22838 26.171C0.340822 26.171 -2 28.5046 -2 31.3834C-2 34.2621 0.340822 36.5958 3.22838 36.5958Z" fill="url(#paint10_linear_21_5)"/>
</mask>
<g mask="url(#mask5_21_5)">
<path d="M3.22838 36.5958C6.11594 36.5958 8.45677 34.2621 8.45677 31.3834C8.45677 28.5046 6.11594 26.171 3.22838 26.171C0.340822 26.171 -2 28.5046 -2 31.3834C-2 34.2621 0.340822 36.5958 3.22838 36.5958Z" fill="url(#paint11_linear_21_5)"/>
</g>
<mask id="mask6_21_5" style="mask-type:alpha" maskUnits="userSpaceOnUse" x="28" y="26" width="11" height="11">
<path d="M33.5095 36.5958C36.397 36.5958 38.7378 34.2621 38.7378 31.3834C38.7378 28.5046 36.397 26.171 33.5095 26.171C30.6219 26.171 28.2811 28.5046 28.2811 31.3834C28.2811 34.2621 30.6219 36.5958 33.5095 36.5958Z" fill="url(#paint12_linear_21_5)"/>
</mask>
<g mask="url(#mask6_21_5)">
<path d="M33.5095 36.5958C36.397 36.5958 38.7378 34.2621 38.7378 31.3834C38.7378 28.5046 36.397 26.171 33.5095 26.171C30.6219 26.171 28.2811 28.5046 28.2811 31.3834C28.2811 34.2621 30.6219 36.5958 33.5095 36.5958Z" fill="url(#paint13_linear_21_5)"/>
</g>
<mask id="mask7_21_5" style="mask-type:alpha" maskUnits="userSpaceOnUse" x="58" y="26" width="12" height="11">
<path d="M63.7905 36.5958C66.6781 36.5958 69.0189 34.2621 69.0189 31.3834C69.0189 28.5046 66.6781 26.171 63.7905 26.171C60.903 26.171 58.5621 28.5046 58.5621 31.3834C58.5621 34.2621 60.903 36.5958 63.7905 36.5958Z" fill="url(#paint14_linear_21_5)"/>
</mask>
<g mask="url(#mask7_21_5)">
<path d="M63.7905 36.5958C66.6781 36.5958 69.0189 34.2621 69.0189 31.3834C69.0189 28.5046 66.6781 26.171 63.7905 26.171C60.903 26.171 58.5621 28.5046 58.5621 31.3834C58.5621 34.2621 60.903 36.5958 63.7905 36.5958Z" fill="url(#paint15_linear_21_5)"/>
</g>
<mask id="mask8_21_5" style="mask-type:alpha" maskUnits="userSpaceOnUse" x="88" y="26" width="12" height="11">
<path d="M94.0716 36.5958C96.9592 36.5958 99.3 34.2621 99.3 31.3834C99.3 28.5046 96.9592 26.171 94.0716 26.171C91.184 26.171 88.8432 28.5046 88.8432 31.3834C88.8432 34.2621 91.184 36.5958 94.0716 36.5958Z" fill="url(#paint16_linear_21_5)"/>
</mask>
<g mask="url(#mask8_21_5)">
<path d="M94.0716 36.5958C96.9592 36.5958 99.3 34.2621 99.3 31.3834C99.3 28.5046 96.9592 26.171 94.0716 26.171C91.184 26.171 88.8432 28.5046 88.8432 31.3834C88.8432 34.2621 91.184 36.5958 94.0716 36.5958Z" fill="url(#paint17_linear_21_5)"/>
</g>
<mask id="mask9_21_5" style="mask-type:alpha" maskUnits="userSpaceOnUse" x="119" y="26" width="11" height="11">
<path d="M124.353 36.5958C127.24 36.5958 129.581 34.2621 129.581 31.3834C129.581 28.5046 127.24 26.171 124.353 26.171C121.465 26.171 119.124 28.5046 119.124 31.3834C119.124 34.2621 121.465 36.5958 124.353 36.5958Z" fill="url(#paint18_linear_21_5)"/>
</mask>
<g mask="url(#mask9_21_5)">
<path d="M124.353 36.5958C127.24 36.5958 129.581 34.2621 129.581 31.3834C129.581 28.5046 127.24 26.171 124.353 26.171C121.465 26.171 119.124 28.5046 119.124 31.3834C119.124 34.2621 121.465 36.5958 124.353 36.5958Z" fill="url(#paint19_linear_21_5)"/>
</g>
<mask id="mask10_21_5" style="mask-type:alpha" maskUnits="userSpaceOnUse" x="-2" y="52" width="11" height="11">
<path d="M3.22838 62.7125C6.11594 62.7125 8.45677 60.3788 8.45677 57.5C8.45677 54.6212 6.11594 52.2875 3.22838 52.2875C0.340822 52.2875 -2 54.6212 -2 57.5C-2 60.3788 0.340822 62.7125 3.22838 62.7125Z" fill="url(#paint20_linear_21_5)"/>
</mask>
<g mask="url(#mask10_21_5)">
<path d="M3.22838 62.7125C6.11594 62.7125 8.45677 60.3788 8.45677 57.5C8.45677 54.6212 6.11594 52.2875 3.22838 52.2875C0.340822 52.2875 -2 54.6212 -2 57.5C-2 60.3788 0.340822 62.7125 3.22838 62.7125Z" fill="url(#paint21_linear_21_5)"/>
</g>
<mask id="mask11_21_5" style="mask-type:alpha" maskUnits="userSpaceOnUse" x="28" y="52" width="11" height="11">
<path d="M33.5095 62.7125C36.397 62.7125 38.7378 60.3788 38.7378 57.5C38.7378 54.6212 36.397 52.2875 33.5095 52.2875C30.6219 52.2875 28.2811 54.6212 28.2811 57.5C28.2811 60.3788 30.6219 62.7125 33.5095 62.7125Z" fill="url(#paint22_linear_21_5)"/>
</mask>
<g mask="url(#mask11_21_5)">
<path d="M33.5095 62.7125C36.397 62.7125 38.7378 60.3788 38.7378 57.5C38.7378 54.6212 36.397 52.2875 33.5095 52.2875C30.6219 52.2875 28.2811 54.6212 28.2811 57.5C28.2811 60.3788 30.6219 62.7125 33.5095 62.7125Z" fill="url(#paint23_linear_21_5)"/>
</g>
<mask id="mask12_21_5" style="mask-type:alpha" maskUnits="userSpaceOnUse" x="58" y="52" width="12" height="11">
<path d="M63.7905 62.7125C66.6781 62.7125 69.0189 60.3788 69.0189 57.5C69.0189 54.6212 66.6781 52.2875 63.7905 52.2875C60.903 52.2875 58.5621 54.6212 58.5621 57.5C58.5621 60.3788 60.903 62.7125 63.7905 62.7125Z" fill="url(#paint24_linear_21_5)"/>
</mask>
<g mask="url(#mask12_21_5)">
<path d="M63.7905 62.7125C66.6781 62.7125 69.0189 60.3788 69.0189 57.5C69.0189 54.6212 66.6781 52.2875 63.7905 52.2875C60.903 52.2875 58.5621 54.6212 58.5621 57.5C58.5621 60.3788 60.903 62.7125 63.7905 62.7125Z" fill="url(#paint25_linear_21_5)"/>
</g>
<mask id="mask13_21_5" style="mask-type:alpha" maskUnits="userSpaceOnUse" x="88" y="52" width="12" height="11">
<path d="M94.0716 62.7125C96.9592 62.7125 99.3 60.3788 99.3 57.5C99.3 54.6212 96.9592 52.2875 94.0716 52.2875C91.184 52.2875 88.8432 54.6212 88.8432 57.5C88.8432 60.3788 91.184 62.7125 94.0716 62.7125Z" fill="url(#paint26_linear_21_5)"/>
</mask>
<g mask="url(#mask13_21_5)">
<path d="M94.0716 62.7125C96.9592 62.7125 99.3 60.3788 99.3 57.5C99.3 54.6212 96.9592 52.2875 94.0716 52.2875C91.184 52.2875 88.8432 54.6212 88.8432 57.5C88.8432 60.3788 91.184 62.7125 94.0716 62.7125Z" fill="url(#paint27_linear_21_5)"/>
</g>
<mask id="mask14_21_5" style="mask-type:alpha" maskUnits="userSpaceOnUse" x="119" y="52" width="11" height="11">
<path d="M124.353 62.7125C127.24 62.7125 129.581 60.3788 129.581 57.5C129.581 54.6212 127.24 52.2875 124.353 52.2875C121.465 52.2875 119.124 54.6212 119.124 57.5C119.124 60.3788 121.465 62.7125 124.353 62.7125Z" fill="url(#paint28_linear_21_5)"/>
</mask>
<g mask="url(#mask14_21_5)">
<path d="M124.353 62.7125C127.24 62.7125 129.581 60.3788 129.581 57.5C129.581 54.6212 127.24 52.2875 124.353 52.2875C121.465 52.2875 119.124 54.6212 119.124 57.5C119.124 60.3788 121.465 62.7125 124.353 62.7125Z" fill="url(#paint29_linear_21_5)"/>
</g>
<mask id="mask15_21_5" style="mask-type:alpha" maskUnits="userSpaceOnUse" x="-2" y="78" width="11" height="11">
<path d="M3.22838 88.8834C6.11594 88.8834 8.45677 86.5496 8.45677 83.6709C8.45677 80.7921 6.11594 78.4584 3.22838 78.4584C0.340822 78.4584 -2 80.7921 -2 83.6709C-2 86.5496 0.340822 88.8834 3.22838 88.8834Z" fill="url(#paint30_linear_21_5)"/>
</mask>
<g mask="url(#mask15_21_5)">
<path d="M3.22838 88.8834C6.11594 88.8834 8.45677 86.5496 8.45677 83.6709C8.45677 80.7921 6.11594 78.4584 3.22838 78.4584C0.340822 78.4584 -2 80.7921 -2 83.6709C-2 86.5496 0.340822 88.8834 3.22838 88.8834Z" fill="url(#paint31_linear_21_5)"/>
</g>
<mask id="mask16_21_5" style="mask-type:alpha" maskUnits="userSpaceOnUse" x="28" y="78" width="11" height="11">
<path d="M33.5095 88.8834C36.397 88.8834 38.7378 86.5496 38.7378 83.6709C38.7378 80.7921 36.397 78.4584 33.5095 78.4584C30.6219 78.4584 28.2811 80.7921 28.2811 83.6709C28.2811 86.5496 30.6219 88.8834 33.5095 88.8834Z" fill="url(#paint32_linear_21_5)"/>
</mask>
<g mask="url(#mask16_21_5)">
<path d="M33.5095 88.8834C36.397 88.8834 38.7378 86.5496 38.7378 83.6709C38.7378 80.7921 36.397 78.4584 33.5095 78.4584C30.6219 78.4584 28.2811 80.7921 28.2811 83.6709C28.2811 86.5496 30.6219 88.8834 33.5095 88.8834Z" fill="url(#paint33_linear_21_5)"/>
</g>
<mask id="mask17_21_5" style="mask-type:alpha" maskUnits="userSpaceOnUse" x="58" y="78" width="12" height="11">
<path d="M63.7905 88.8834C66.6781 88.8834 69.0189 86.5496 69.0189 83.6709C69.0189 80.7921 66.6781 78.4584 63.7905 78.4584C60.903 78.4584 58.5621 80.7921 58.5621 83.6709C58.5621 86.5496 60.903 88.8834 63.7905 88.8834Z" fill="url(#paint34_linear_21_5)"/>
</mask>
<g mask="url(#mask17_21_5)">
<path d="M63.7905 88.8834C66.6781 88.8834 69.0189 86.5496 69.0189 83.6709C69.0189 80.7921 66.6781 78.4584 63.7905 78.4584C60.903 78.4584 58.5621 80.7921 58.5621 83.6709C58.5621 86.5496 60.903 88.8834 63.7905 88.8834Z" fill="url(#paint35_linear_21_5)"/>
</g>
<mask id="mask18_21_5" style="mask-type:alpha" maskUnits="userSpaceOnUse" x="88" y="78" width="12" height="11">
<path d="M94.0716 88.8834C96.9592 88.8834 99.3 86.5496 99.3 83.6709C99.3 80.7921 96.9592 78.4584 94.0716 78.4584C91.184 78.4584 88.8432 80.7921 88.8432 83.6709C88.8432 86.5496 91.184 88.8834 94.0716 88.8834Z" fill="url(#paint36_linear_21_5)"/>
</mask>
<g mask="url(#mask18_21_5)">
<path d="M94.0716 88.8834C96.9592 88.8834 99.3 86.5496 99.3 83.6709C99.3 80.7921 96.9592 78.4584 94.0716 78.4584C91.184 78.4584 88.8432 80.7921 88.8432 83.6709C88.8432 86.5496 91.184 88.8834 94.0716 88.8834Z" fill="url(#paint37_linear_21_5)"/>
</g>
<mask id="mask19_21_5" style="mask-type:alpha" maskUnits="userSpaceOnUse" x="119" y="78" width="11" height="11">
<path d="M124.353 88.8834C127.24 88.8834 129.581 86.5496 129.581 83.6709C129.581 80.7921 127.24 78.4584 124.353 78.4584C121.465 78.4584 119.124 80.7921 119.124 83.6709C119.124 86.5496 121.465 88.8834 124.353 88.8834Z" fill="url(#paint38_linear_21_5)"/>
</mask>
<g mask="url(#mask19_21_5)">
<path d="M124.353 88.8834C127.24 88.8834 129.581 86.5496 129.581 83.6709C129.581 80.7921 127.24 78.4584 124.353 78.4584C121.465 78.4584 119.124 80.7921 119.124 83.6709C119.124 86.5496 121.465 88.8834 124.353 88.8834Z" fill="url(#paint39_linear_21_5)"/>
</g>
<mask id="mask20_21_5" style="mask-type:alpha" maskUnits="userSpaceOnUse" x="-2" y="104" width="11" height="11">
<path d="M3.22838 115C6.11594 115 8.45677 112.666 8.45677 109.788C8.45677 106.909 6.11594 104.575 3.22838 104.575C0.340822 104.575 -2 106.909 -2 109.788C-2 112.666 0.340822 115 3.22838 115Z" fill="url(#paint40_linear_21_5)"/>
</mask>
<g mask="url(#mask20_21_5)">
<path d="M3.22838 115C6.11594 115 8.45677 112.666 8.45677 109.788C8.45677 106.909 6.11594 104.575 3.22838 104.575C0.340822 104.575 -2 106.909 -2 109.788C-2 112.666 0.340822 115 3.22838 115Z" fill="url(#paint41_linear_21_5)"/>
</g>
<mask id="mask21_21_5" style="mask-type:alpha" maskUnits="userSpaceOnUse" x="28" y="104" width="11" height="11">
<path d="M33.5095 115C36.397 115 38.7378 112.666 38.7378 109.788C38.7378 106.909 36.397 104.575 33.5095 104.575C30.6219 104.575 28.2811 106.909 28.2811 109.788C28.2811 112.666 30.6219 115 33.5095 115Z" fill="url(#paint42_linear_21_5)"/>
</mask>
<g mask="url(#mask21_21_5)">
<path d="M33.5095 115C36.397 115 38.7378 112.666 38.7378 109.788C38.7378 106.909 36.397 104.575 33.5095 104.575C30.6219 104.575 28.2811 106.909 28.2811 109.788C28.2811 112.666 30.6219 115 33.5095 115Z" fill="url(#paint43_linear_21_5)"/>
</g>
<mask id="mask22_21_5" style="mask-type:alpha" maskUnits="userSpaceOnUse" x="58" y="104" width="12" height="11">
<path d="M63.7905 115C66.6781 115 69.0189 112.666 69.0189 109.788C69.0189 106.909 66.6781 104.575 63.7905 104.575C60.903 104.575 58.5621 106.909 58.5621 109.788C58.5621 112.666 60.903 115 63.7905 115Z" fill="url(#paint44_linear_21_5)"/>
</mask>
<g mask="url(#mask22_21_5)">
<path d="M63.7905 115C66.6781 115 69.0189 112.666 69.0189 109.788C69.0189 106.909 66.6781 104.575 63.7905 104.575C60.903 104.575 58.5621 106.909 58.5621 109.788C58.5621 112.666 60.903 115 63.7905 115Z" fill="url(#paint45_linear_21_5)"/>
</g>
<mask id="mask23_21_5" style="mask-type:alpha" maskUnits="userSpaceOnUse" x="88" y="104" width="12" height="11">
<path d="M94.0716 115C96.9592 115 99.3 112.666 99.3 109.788C99.3 106.909 96.9592 104.575 94.0716 104.575C91.184 104.575 88.8432 106.909 88.8432 109.788C88.8432 112.666 91.184 115 94.0716 115Z" fill="url(#paint46_linear_21_5)"/>
</mask>
<g mask="url(#mask23_21_5)">
<path d="M94.0716 115C96.9592 115 99.3 112.666 99.3 109.788C99.3 106.909 96.9592 104.575 94.0716 104.575C91.184 104.575 88.8432 106.909 88.8432 109.788C88.8432 112.666 91.184 115 94.0716 115Z" fill="url(#paint47_linear_21_5)"/>
</g>
<mask id="mask24_21_5" style="mask-type:alpha" maskUnits="userSpaceOnUse" x="119" y="104" width="11" height="11">
<path d="M124.353 115C127.24 115 129.581 112.666 129.581 109.788C129.581 106.909 127.24 104.575 124.353 104.575C121.465 104.575 119.124 106.909 119.124 109.788C119.124 112.666 121.465 115 124.353 115Z" fill="url(#paint48_linear_21_5)"/>
</mask>
<g mask="url(#mask24_21_5)">
<path d="M124.353 115C127.24 115 129.581 112.666 129.581 109.788C129.581 106.909 127.24 104.575 124.353 104.575C121.465 104.575 119.124 106.909 119.124 109.788C119.124 112.666 121.465 115 124.353 115Z" fill="url(#paint49_linear_21_5)"/>
</g>
</g>
<defs>
<linearGradient id="paint0_linear_21_5" x1="52.996" y1="131.134" x2="-18.4057" y2="-50.67" gradientUnits="userSpaceOnUse">
<stop/>
<stop offset="1" stop-color="white"/>
</linearGradient>
<linearGradient id="paint1_linear_21_5" x1="52.996" y1="131.134" x2="-18.4057" y2="-50.67" gradientUnits="userSpaceOnUse">
<stop stop-color="#97C3F9"/>
<stop offset="1" stop-color="#93C1F9"/>
</linearGradient>
<linearGradient id="paint2_linear_21_5" x1="79.2005" y1="120.843" x2="7.79889" y2="-60.9613" gradientUnits="userSpaceOnUse">
<stop/>
<stop offset="1" stop-color="white"/>
</linearGradient>
<linearGradient id="paint3_linear_21_5" x1="79.2005" y1="120.843" x2="7.79889" y2="-60.9613" gradientUnits="userSpaceOnUse">
<stop stop-color="#97C3F9"/>
<stop offset="1" stop-color="#93C1F9"/>
</linearGradient>
<linearGradient id="paint4_linear_21_5" x1="105.405" y1="110.551" x2="34.0033" y2="-71.2526" gradientUnits="userSpaceOnUse">
<stop/>
<stop offset="1" stop-color="white"/>
</linearGradient>
<linearGradient id="paint5_linear_21_5" x1="105.405" y1="110.551" x2="34.0033" y2="-71.2526" gradientUnits="userSpaceOnUse">
<stop stop-color="#97C3F9"/>
<stop offset="1" stop-color="#93C1F9"/>
</linearGradient>
<linearGradient id="paint6_linear_21_5" x1="131.609" y1="100.259" x2="60.2075" y2="-81.5444" gradientUnits="userSpaceOnUse">
<stop/>
<stop offset="1" stop-color="white"/>
</linearGradient>
<linearGradient id="paint7_linear_21_5" x1="131.609" y1="100.259" x2="60.2075" y2="-81.5444" gradientUnits="userSpaceOnUse">
<stop stop-color="#97C3F9"/>
<stop offset="1" stop-color="#93C1F9"/>
</linearGradient>
<linearGradient id="paint8_linear_21_5" x1="157.813" y1="89.9679" x2="86.4119" y2="-91.8359" gradientUnits="userSpaceOnUse">
<stop/>
<stop offset="1" stop-color="white"/>
</linearGradient>
<linearGradient id="paint9_linear_21_5" x1="157.813" y1="89.9679" x2="86.4119" y2="-91.8359" gradientUnits="userSpaceOnUse">
<stop stop-color="#97C3F9"/>
<stop offset="1" stop-color="#93C1F9"/>
</linearGradient>
<linearGradient id="paint10_linear_21_5" x1="44.0538" y1="134.645" x2="-27.3466" y2="-47.1571" gradientUnits="userSpaceOnUse">
<stop/>
<stop offset="1" stop-color="white"/>
</linearGradient>
<linearGradient id="paint11_linear_21_5" x1="44.0538" y1="134.645" x2="-27.3466" y2="-47.1571" gradientUnits="userSpaceOnUse">
<stop stop-color="#97C3F9"/>
<stop offset="1" stop-color="#93C1F9"/>
</linearGradient>
<linearGradient id="paint12_linear_21_5" x1="70.2581" y1="124.354" x2="-1.14228" y2="-57.449" gradientUnits="userSpaceOnUse">
<stop/>
<stop offset="1" stop-color="white"/>
</linearGradient>
<linearGradient id="paint13_linear_21_5" x1="70.2581" y1="124.354" x2="-1.14228" y2="-57.449" gradientUnits="userSpaceOnUse">
<stop stop-color="#97C3F9"/>
<stop offset="1" stop-color="#93C1F9"/>
</linearGradient>
<linearGradient id="paint14_linear_21_5" x1="96.4624" y1="114.062" x2="25.0621" y2="-67.7403" gradientUnits="userSpaceOnUse">
<stop/>
<stop offset="1" stop-color="white"/>
</linearGradient>
<linearGradient id="paint15_linear_21_5" x1="96.4624" y1="114.062" x2="25.0621" y2="-67.7403" gradientUnits="userSpaceOnUse">
<stop stop-color="#97C3F9"/>
<stop offset="1" stop-color="#93C1F9"/>
</linearGradient>
<linearGradient id="paint16_linear_21_5" x1="122.667" y1="103.771" x2="51.2663" y2="-78.0318" gradientUnits="userSpaceOnUse">
<stop/>
<stop offset="1" stop-color="white"/>
</linearGradient>
<linearGradient id="paint17_linear_21_5" x1="122.667" y1="103.771" x2="51.2663" y2="-78.0318" gradientUnits="userSpaceOnUse">
<stop stop-color="#97C3F9"/>
<stop offset="1" stop-color="#93C1F9"/>
</linearGradient>
<linearGradient id="paint18_linear_21_5" x1="148.871" y1="93.4794" x2="77.4707" y2="-88.3231" gradientUnits="userSpaceOnUse">
<stop/>
<stop offset="1" stop-color="white"/>
</linearGradient>
<linearGradient id="paint19_linear_21_5" x1="148.871" y1="93.4794" x2="77.4707" y2="-88.3231" gradientUnits="userSpaceOnUse">
<stop stop-color="#97C3F9"/>
<stop offset="1" stop-color="#93C1F9"/>
</linearGradient>
<linearGradient id="paint20_linear_21_5" x1="35.1113" y1="138.158" x2="-36.2903" y2="-43.6458" gradientUnits="userSpaceOnUse">
<stop/>
<stop offset="1" stop-color="white"/>
</linearGradient>
<linearGradient id="paint21_linear_21_5" x1="35.1113" y1="138.158" x2="-36.2903" y2="-43.6458" gradientUnits="userSpaceOnUse">
<stop stop-color="#97C3F9"/>
<stop offset="1" stop-color="#93C1F9"/>
</linearGradient>
<linearGradient id="paint22_linear_21_5" x1="61.3157" y1="127.866" x2="-10.0859" y2="-53.9374" gradientUnits="userSpaceOnUse">
<stop/>
<stop offset="1" stop-color="white"/>
</linearGradient>
<linearGradient id="paint23_linear_21_5" x1="61.3157" y1="127.866" x2="-10.0859" y2="-53.9374" gradientUnits="userSpaceOnUse">
<stop stop-color="#97C3F9"/>
<stop offset="1" stop-color="#93C1F9"/>
</linearGradient>
<linearGradient id="paint24_linear_21_5" x1="87.5201" y1="117.575" x2="16.1185" y2="-64.2288" gradientUnits="userSpaceOnUse">
<stop/>
<stop offset="1" stop-color="white"/>
</linearGradient>
<linearGradient id="paint25_linear_21_5" x1="87.5201" y1="117.575" x2="16.1185" y2="-64.2288" gradientUnits="userSpaceOnUse">
<stop stop-color="#97C3F9"/>
<stop offset="1" stop-color="#93C1F9"/>
</linearGradient>
<linearGradient id="paint26_linear_21_5" x1="113.724" y1="107.283" x2="42.3227" y2="-74.5204" gradientUnits="userSpaceOnUse">
<stop/>
<stop offset="1" stop-color="white"/>
</linearGradient>
<linearGradient id="paint27_linear_21_5" x1="113.724" y1="107.283" x2="42.3227" y2="-74.5204" gradientUnits="userSpaceOnUse">
<stop stop-color="#97C3F9"/>
<stop offset="1" stop-color="#93C1F9"/>
</linearGradient>
<linearGradient id="paint28_linear_21_5" x1="139.929" y1="96.9919" x2="68.5271" y2="-84.8119" gradientUnits="userSpaceOnUse">
<stop/>
<stop offset="1" stop-color="white"/>
</linearGradient>
<linearGradient id="paint29_linear_21_5" x1="139.929" y1="96.9919" x2="68.5271" y2="-84.8119" gradientUnits="userSpaceOnUse">
<stop stop-color="#97C3F9"/>
<stop offset="1" stop-color="#93C1F9"/>
</linearGradient>
<linearGradient id="paint30_linear_21_5" x1="26.169" y1="141.67" x2="-45.2327" y2="-40.1339" gradientUnits="userSpaceOnUse">
<stop/>
<stop offset="1" stop-color="white"/>
</linearGradient>
<linearGradient id="paint31_linear_21_5" x1="26.169" y1="141.67" x2="-45.2327" y2="-40.1339" gradientUnits="userSpaceOnUse">
<stop stop-color="#97C3F9"/>
<stop offset="1" stop-color="#93C1F9"/>
</linearGradient>
<linearGradient id="paint32_linear_21_5" x1="52.3734" y1="131.378" x2="-19.0283" y2="-50.4254" gradientUnits="userSpaceOnUse">
<stop/>
<stop offset="1" stop-color="white"/>
</linearGradient>
<linearGradient id="paint33_linear_21_5" x1="52.3734" y1="131.378" x2="-19.0283" y2="-50.4254" gradientUnits="userSpaceOnUse">
<stop stop-color="#97C3F9"/>
<stop offset="1" stop-color="#93C1F9"/>
</linearGradient>
<linearGradient id="paint34_linear_21_5" x1="78.5777" y1="121.087" x2="7.17609" y2="-60.7168" gradientUnits="userSpaceOnUse">
<stop/>
<stop offset="1" stop-color="white"/>
</linearGradient>
<linearGradient id="paint35_linear_21_5" x1="78.5777" y1="121.087" x2="7.17609" y2="-60.7168" gradientUnits="userSpaceOnUse">
<stop stop-color="#97C3F9"/>
<stop offset="1" stop-color="#93C1F9"/>
</linearGradient>
<linearGradient id="paint36_linear_21_5" x1="104.782" y1="110.795" x2="33.3804" y2="-71.0084" gradientUnits="userSpaceOnUse">
<stop/>
<stop offset="1" stop-color="white"/>
</linearGradient>
<linearGradient id="paint37_linear_21_5" x1="104.782" y1="110.795" x2="33.3804" y2="-71.0084" gradientUnits="userSpaceOnUse">
<stop stop-color="#97C3F9"/>
<stop offset="1" stop-color="#93C1F9"/>
</linearGradient>
<linearGradient id="paint38_linear_21_5" x1="130.986" y1="100.504" x2="59.5847" y2="-81.3" gradientUnits="userSpaceOnUse">
<stop/>
<stop offset="1" stop-color="white"/>
</linearGradient>
<linearGradient id="paint39_linear_21_5" x1="130.986" y1="100.504" x2="59.5847" y2="-81.3" gradientUnits="userSpaceOnUse">
<stop stop-color="#97C3F9"/>
<stop offset="1" stop-color="#93C1F9"/>
</linearGradient>
<linearGradient id="paint40_linear_21_5" x1="17.2266" y1="145.182" x2="-54.1751" y2="-36.6219" gradientUnits="userSpaceOnUse">
<stop/>
<stop offset="1" stop-color="white"/>
</linearGradient>
<linearGradient id="paint41_linear_21_5" x1="17.2266" y1="145.182" x2="-54.1751" y2="-36.6219" gradientUnits="userSpaceOnUse">
<stop stop-color="#97C3F9"/>
<stop offset="1" stop-color="#93C1F9"/>
</linearGradient>
<linearGradient id="paint42_linear_21_5" x1="43.431" y1="134.89" x2="-27.9706" y2="-46.9134" gradientUnits="userSpaceOnUse">
<stop/>
<stop offset="1" stop-color="white"/>
</linearGradient>
<linearGradient id="paint43_linear_21_5" x1="43.431" y1="134.89" x2="-27.9706" y2="-46.9134" gradientUnits="userSpaceOnUse">
<stop stop-color="#97C3F9"/>
<stop offset="1" stop-color="#93C1F9"/>
</linearGradient>
<linearGradient id="paint44_linear_21_5" x1="69.6353" y1="124.599" x2="-1.76625" y2="-57.2047" gradientUnits="userSpaceOnUse">
<stop/>
<stop offset="1" stop-color="white"/>
</linearGradient>
<linearGradient id="paint45_linear_21_5" x1="69.6353" y1="124.599" x2="-1.76625" y2="-57.2047" gradientUnits="userSpaceOnUse">
<stop stop-color="#97C3F9"/>
<stop offset="1" stop-color="#93C1F9"/>
</linearGradient>
<linearGradient id="paint46_linear_21_5" x1="95.8397" y1="114.307" x2="24.438" y2="-67.4964" gradientUnits="userSpaceOnUse">
<stop/>
<stop offset="1" stop-color="white"/>
</linearGradient>
<linearGradient id="paint47_linear_21_5" x1="95.8397" y1="114.307" x2="24.438" y2="-67.4964" gradientUnits="userSpaceOnUse">
<stop stop-color="#97C3F9"/>
<stop offset="1" stop-color="#93C1F9"/>
</linearGradient>
<linearGradient id="paint48_linear_21_5" x1="122.044" y1="104.016" x2="50.6424" y2="-77.7879" gradientUnits="userSpaceOnUse">
<stop/>
<stop offset="1" stop-color="white"/>
</linearGradient>
<linearGradient id="paint49_linear_21_5" x1="122.044" y1="104.016" x2="50.6424" y2="-77.7879" gradientUnits="userSpaceOnUse">
<stop stop-color="#97C3F9"/>
<stop offset="1" stop-color="#93C1F9"/>
</linearGradient>
</defs>
</svg>
