<svg width="15" height="9" viewBox="0 0 15 9" fill="none" xmlns="http://www.w3.org/2000/svg">
<g clip-path="url(#clip0_63_2689)">
<path d="M0.803571 5.30357L11.4107 5.30357L9.08036 7.63393C8.75893 7.95536 8.75893 8.4375 9.08036 8.75893C9.40179 9.08036 9.88393 9.08036 10.2054 8.75893L13.9018 5.0625C14.2232 4.74107 14.2232 4.25893 13.9018 3.9375L10.2054 0.241073C9.88393 -0.0803567 9.40179 -0.0803567 9.08036 0.241072C8.75893 0.562501 8.75893 1.04464 9.08036 1.36607L11.4107 3.69643L0.803571 3.69643C0.401785 3.69643 -5.18122e-07 4.01786 -5.60272e-07 4.5C-6.02422e-07 4.98214 0.401785 5.30357 0.803571 5.30357Z" fill="#4089ED"/>
</g>
<defs>
<clipPath id="clip0_63_2689">
<rect width="14.1429" height="9" fill="white" transform="translate(14.1429 9) rotate(-180)"/>
</clipPath>
</defs>
</svg>
